<svg id="Layer_1" data-name="Layer 1" xmlns="http://www.w3.org/2000/svg" viewBox="0 0 288 153"><defs><style>.cls-1{fill:#8dc63f;}.cls-2{fill:#009444;}.cls-3{fill:#006838;}.cls-4{fill:#fff;}.cls-5{fill:#00aeef;}.cls-6{fill:#231f20;}</style></defs><title>crocrocgoooooood</title><polygon class="cls-1" points="220.5 76.5 220.5 108 216 108 216 112.5 211.5 112.5 211.5 117 207 117 207 121.5 198 121.5 198 126 184.5 126 184.5 130.5 162 130.5 162 126 144 126 144 121.5 135 121.5 135 117 99 117 99 103.5 121.5 103.5 121.5 99 130.5 99 130.5 103.5 135 103.5 135 108 139.5 108 139.5 112.5 144 112.5 144 94.5 171 94.5 171 99 175.5 99 175.5 103.5 180 103.5 180 85.5 184.5 85.5 184.5 81 189 81 189 76.5 193.5 76.5 193.5 72 198 72 198 67.5 216 67.5 216 76.5 220.5 76.5"/><polygon class="cls-2" points="63 72 63 90 58.5 90 58.5 94.5 54 94.5 54 99 49.5 99 49.5 103.5 45 103.5 45 108 40.5 108 40.5 112.5 22.5 112.5 22.5 108 18 108 18 103.5 9 103.5 9 99 4.5 99 4.5 94.5 0 94.5 0 81 4.5 81 4.5 72 9 72 9 81 22.5 81 22.5 72 18 72 18 67.5 13.5 67.5 13.5 63 27 63 27 67.5 31.5 67.5 31.5 72 36 72 36 67.5 40.5 67.5 40.5 63 54 63 54 67.5 45 67.5 45 72 40.5 72 40.5 81 54 81 54 76.5 58.5 76.5 58.5 72 63 72"/><rect class="cls-2" x="9" y="67.5" width="9" height="4.5"/><rect class="cls-2" x="45" y="67.5" width="9" height="4.5"/><rect class="cls-2" x="54" y="72" width="4.5" height="4.5"/><rect class="cls-2" x="54" y="72" width="4.5" height="4.5"/><rect class="cls-1" x="45" y="72" width="9" height="9"/><rect class="cls-2" x="54" y="67.5" width="4.5" height="4.5"/><path class="cls-3" d="M257.25,93v-4.5h-4.5V84h-4.5v-4.5h-9V75h-4.5V61.46h-4.5v-9h-4.5V48h-4.5V39h-4.5v-4.5h-9V30h-13.5v4.5h-9V39h-4.5v4.5h-4.5V39h-9v-4.5h-4.5V39h-4.5v4.5h-4.5V48h-4.5v4.5h-4.5V84h-31.5v4.5h-9V93h-9v4.5h-4.5V102h4.5v18h-4.5v4.5h-4.5V129h-4.5v4.5h36V129h36v-4.5h22.5V120h22.5v-4.5h13.5V111h4.5v-4.5h4.5V102h4.5v-4.5h4.5V93h9v4.5h9v9h4.5v27h4.5v-9h4.5V93Zm-85.5-18h-4.5v4.5h-18V75h4.5V57h4.5v-4.5h4.5V48h4.5v4.5h4.5Zm40.5,4.5h-9V84h-27V70.46h4.5V57h4.5v-4.5h4.5V48h13.5v4.5h4.5v9h4.5Z" transform="translate(-32.25 -29.96)"/><polygon class="cls-4" points="139.5 22.5 139.5 36 135 36 135 31.5 130.5 31.5 130.5 36 126 36 126 49.5 117 49.5 117 45 121.5 45 121.5 27 126 27 126 22.5 130.5 22.5 130.5 18 135 18 135 22.5 139.5 22.5"/><polygon class="cls-4" points="180 31.5 180 49.5 175.5 49.5 175.5 36 171 36 171 31.5 157.5 31.5 157.5 36 153 36 153 54 144 54 144 40.5 148.5 40.5 148.5 27 153 27 153 22.5 157.5 22.5 157.5 18 171 18 171 22.5 175.5 22.5 175.5 31.5 180 31.5"/><polygon class="cls-5" points="139.5 36 139.5 45 135 45 135 40.5 130.5 40.5 130.5 49.5 126 49.5 126 36 130.5 36 130.5 31.5 135 31.5 135 36 139.5 36"/><polygon class="cls-5" points="175.5 36 175.5 49.5 171 49.5 171 40.5 162 40.5 162 54 153 54 153 36 157.5 36 157.5 31.5 171 31.5 171 36 175.5 36"/><rect class="cls-6" x="130.5" y="40.5" width="4.5" height="9"/><rect class="cls-6" x="162" y="40.5" width="9" height="13.5"/><rect class="cls-6" x="40.5" y="72" width="4.5" height="9"/><rect class="cls-6" x="45" y="67.5" width="9" height="4.5"/><rect class="cls-6" x="54" y="72" width="4.5" height="4.5"/><rect class="cls-1" x="9" y="72" width="9" height="9"/><rect class="cls-6" x="18" y="72" width="4.5" height="9"/><rect class="cls-6" x="9" y="67.5" width="9" height="4.5"/><rect class="cls-3" x="189" y="72" width="4.5" height="4.5"/><polygon class="cls-1" points="94.5 112.5 94.5 117 45 117 45 112.5 40.5 112.5 40.5 108 90 108 90 112.5 94.5 112.5"/><rect class="cls-1" x="45" y="103.5" width="40.5" height="4.5"/><rect class="cls-1" x="85.5" y="99" width="36" height="4.5"/><rect class="cls-1" x="121.5" y="94.5" width="22.5" height="4.5"/><rect class="cls-1" x="198" y="63" width="9" height="4.5"/><rect class="cls-1" x="193.5" y="67.5" width="4.5" height="4.5"/><rect class="cls-1" x="184.5" y="76.5" width="4.5" height="4.5"/><rect class="cls-1" x="180" y="81" width="4.5" height="4.5"/><rect class="cls-1" x="166.5" y="85.5" width="13.5" height="4.5"/><rect class="cls-1" x="144" y="90" width="22.5" height="4.5"/><rect class="cls-6" x="198" y="63" width="9" height="4.5"/><rect class="cls-6" x="193.5" y="67.5" width="4.5" height="4.5"/><rect class="cls-6" x="189" y="72" width="4.5" height="4.5"/><rect class="cls-6" x="184.5" y="76.5" width="4.5" height="4.5"/><rect class="cls-6" x="180" y="81" width="4.5" height="4.5"/><rect class="cls-6" x="166.5" y="85.5" width="13.5" height="4.5"/><rect class="cls-6" x="144" y="90" width="22.5" height="4.5"/><rect class="cls-6" x="121.5" y="94.5" width="22.5" height="4.5"/><rect class="cls-6" x="85.5" y="99" width="36" height="4.5"/><rect class="cls-6" x="45" y="103.5" width="40.5" height="4.5"/><polygon class="cls-4" points="99 103.5 99 117 94.5 117 94.5 112.5 90 112.5 90 108 85.5 108 85.5 103.5 99 103.5"/><polygon class="cls-4" points="144 99 144 112.5 139.5 112.5 139.5 108 135 108 135 103.5 130.5 103.5 130.5 99 144 99"/><polygon class="cls-4" points="180 90 180 103.5 175.5 103.5 175.5 99 171 99 171 94.5 166.5 94.5 166.5 90 180 90"/><polygon class="cls-3" points="283.5 121.5 283.5 126 274.5 126 274.5 121.5 261 121.5 261 126 256.5 126 256.5 130.5 252 130.5 252 139.5 256.5 139.5 256.5 144 261 144 261 148.5 211.5 148.5 211.5 144 202.5 144 202.5 139.5 175.5 139.5 175.5 144 171 144 171 148.5 121.5 148.5 121.5 135 126 135 126 130.5 130.5 130.5 130.5 117 135 117 135 121.5 144 121.5 144 126 162 126 162 130.5 184.5 130.5 184.5 126 198 126 198 121.5 207 121.5 207 117 211.5 117 211.5 126 207 126 207 130.5 211.5 130.5 211.5 135 216 135 216 139.5 220.5 139.5 220.5 144 229.5 144 229.5 130.5 234 130.5 234 126 238.5 126 238.5 117 243 117 243 112.5 247.5 112.5 247.5 108 265.5 108 265.5 112.5 274.5 112.5 274.5 117 279 117 279 121.5 283.5 121.5"/><rect class="cls-3" x="175.5" y="139.5" width="4.5" height="4.5"/><polygon class="cls-3" points="108 144 108 148.5 94.5 148.5 94.5 144 85.5 144 85.5 139.5 63 139.5 63 135 72 135 72 130.5 94.5 130.5 94.5 135 99 135 99 139.5 103.5 139.5 103.5 144 108 144"/><polygon class="cls-1" points="72 139.5 72 144 67.5 144 67.5 153 58.5 153 58.5 144 63 144 63 139.5 72 139.5"/><rect class="cls-1" x="72" y="139.5" width="4.5" height="4.5"/><polygon class="cls-1" points="85.5 139.5 85.5 144 81 144 81 153 72 153 72 144 76.5 144 76.5 139.5 85.5 139.5"/><polygon class="cls-1" points="94.5 144 94.5 148.5 90 148.5 90 153 85.5 153 85.5 144 94.5 144"/><rect class="cls-6" x="58.5" y="139.5" width="4.5" height="4.5"/><rect class="cls-6" x="54" y="144" width="4.5" height="9"/><rect class="cls-6" x="72" y="139.5" width="4.5" height="4.5"/><rect class="cls-6" x="67.5" y="144" width="4.5" height="9"/><rect class="cls-6" x="81" y="144" width="4.5" height="9"/><polygon class="cls-1" points="189 139.5 189 144 184.5 144 184.5 153 175.5 153 175.5 144 180 144 180 139.5 189 139.5"/><rect class="cls-1" x="189" y="139.5" width="4.5" height="4.5"/><polygon class="cls-1" points="202.5 139.5 202.5 144 198 144 198 153 189 153 189 144 193.5 144 193.5 139.5 202.5 139.5"/><polygon class="cls-1" points="211.5 144 211.5 148.5 207 148.5 207 153 202.5 153 202.5 144 211.5 144"/><rect class="cls-6" x="175.5" y="139.5" width="4.5" height="4.5"/><rect class="cls-6" x="171" y="144" width="4.5" height="9"/><rect class="cls-6" x="189" y="139.5" width="4.5" height="4.5"/><rect class="cls-6" x="184.5" y="144" width="4.5" height="9"/><rect class="cls-6" x="198" y="144" width="4.5" height="9"/><rect class="cls-3" x="283.5" y="126" width="4.5" height="4.5"/><polygon class="cls-1" points="229.5 130.5 229.5 144 225 144 225 135 220.5 135 220.5 130.5 229.5 130.5"/><polygon class="cls-1" points="238.5 121.5 238.5 126 234 126 234 130.5 229.5 130.5 229.5 117 234 117 234 121.5 238.5 121.5"/><polygon class="cls-1" points="247.5 103.5 247.5 112.5 243 112.5 243 117 238.5 117 238.5 108 243 108 243 103.5 247.5 103.5"/><polygon class="cls-1" points="261 99 261 108 252 108 252 103.5 256.5 103.5 256.5 99 261 99"/><polygon class="cls-1" points="274.5 103.5 274.5 112.5 265.5 112.5 265.5 108 270 108 270 103.5 274.5 103.5"/><polygon class="cls-1" points="288 112.5 288 121.5 279 121.5 279 117 283.5 117 283.5 112.5 288 112.5"/></svg>